<?xml version="1.0" encoding="UTF-8"?>
<svg id="_图层_2" data-name="图层 2" xmlns="http://www.w3.org/2000/svg" width="80.15mm" height="26.59mm" viewBox="0 0 227.2 75.38">
  <defs>
    <style>
      .cls-1 {
        fill: white;
        stroke-width: 0px;
      }
    </style>
  </defs>
  <g id="_图层_1-2" data-name="图层 1">
    <g>
      <path class="cls-1" d="m13.21,11.62v-1.46h6.56v1.46h-6.56Z"/>
      <path class="cls-1" d="m18.64,11.62v-1.46h7.62v1.46h-7.62Z"/>
      <path class="cls-1" d="m24.95,11.62v-1.46h7.62v1.46h-7.62Z"/>
      <path class="cls-1" d="m31.44,11.62v-1.46h6.56v1.46h-6.56Z"/>
      <path class="cls-1" d="m44.76,11.57v-1.41h5.86v1.41h-5.86Z"/>
      <path class="cls-1" d="m215.17,11.57v-1.41h5.86v1.41h-5.86Z"/>
      <path class="cls-1" d="m6.78,21.27l4.54-10.55h1.61l-4.54,10.55h-1.61Z"/>
      <path class="cls-1" d="m19.52,21.62v-1.46h6.56v1.46h-6.56Z"/>
      <path class="cls-1" d="m24.95,21.62v-1.46h7.62v1.46h-7.62Z"/>
      <path class="cls-1" d="m31.44,21.62v-1.46h6.56v1.46h-6.56Z"/>
      <path class="cls-1" d="m40.61,21.98v-11.95h1.55v11.95h-1.55Z"/>
      <path class="cls-1" d="m53.23,21.98v-11.95h1.55v11.95h-1.55Z"/>
      <path class="cls-1" d="m57.39,21.62v-1.46h6.56v1.46h-6.56Z"/>
      <path class="cls-1" d="m63,21.62v-1.46h6.56v1.46h-6.56Z"/>
      <path class="cls-1" d="m88.94,21.62v-1.46h6.56v1.46h-6.56Z"/>
      <path class="cls-1" d="m94.38,21.62v-1.46h7.62v1.46h-7.62Z"/>
      <path class="cls-1" d="m100.86,21.62v-1.46h6.56v1.46h-6.56Z"/>
      <path class="cls-1" d="m114.19,21.57v-1.41h5.86v1.41h-5.86Z"/>
      <path class="cls-1" d="m126.81,21.62v-1.46h6.56v1.46h-6.56Z"/>
      <path class="cls-1" d="m132.42,21.62v-1.46h6.56v1.46h-6.56Z"/>
      <path class="cls-1" d="m158.37,21.62v-1.46h6.56v1.46h-6.56Z"/>
      <path class="cls-1" d="m163.98,21.62v-1.46h6.56v1.46h-6.56Z"/>
      <path class="cls-1" d="m177.3,21.57v-1.41h5.86v1.41h-5.86Z"/>
      <path class="cls-1" d="m189.92,21.62v-1.46h6.56v1.46h-6.56Z"/>
      <path class="cls-1" d="m195.36,21.62v-1.46h7.62v1.46h-7.62Z"/>
      <path class="cls-1" d="m201.84,21.62v-1.46h6.56v1.46h-6.56Z"/>
      <path class="cls-1" d="m213.95,21.33c-1.34,0-2.38-.47-3.12-1.4s-1.11-2.26-1.11-3.96.37-2.99,1.11-3.91,1.78-1.39,3.12-1.39h.26v1.47h-.26c-.83,0-1.47.33-1.92,1s-.68,1.61-.68,2.82.23,2.19.68,2.87,1.09,1.02,1.92,1.02h.26v1.47h-.26Z"/>
      <path class="cls-1" d="m215.17,21.57v-1.41h5.86v1.41h-5.86Z"/>
      <path class="cls-1" d="m221.98,21.33v-1.47h.25c.84,0,1.48-.34,1.93-1.02s.67-1.64.67-2.87-.22-2.16-.67-2.82-1.09-1-1.93-1h-.25v-1.47h.25c1.34,0,2.38.46,3.12,1.39s1.1,2.23,1.1,3.91-.37,3.03-1.1,3.96-1.78,1.4-3.12,1.4h-.25Z"/>
      <path class="cls-1" d="m2.74,31.98v-11.95h1.55v11.95h-1.55Z"/>
      <path class="cls-1" d="m15.36,31.98v-11.95h1.55v11.95h-1.55Z"/>
      <path class="cls-1" d="m40.61,31.98v-11.95h1.55v11.95h-1.55Z"/>
      <path class="cls-1" d="m53.3,25.59l-.22-3.75h1.85l-.22,3.75h-1.42Z"/>
      <path class="cls-1" d="m57.39,31.57v-1.41h5.86v1.41h-5.86Z"/>
      <path class="cls-1" d="m74.38,31.27l-4.54-10.55h1.61l4.54,10.55h-1.61Z"/>
      <path class="cls-1" d="m82.52,31.27l4.54-10.55h1.61l-4.54,10.55h-1.61Z"/>
      <path class="cls-1" d="m95.25,31.57v-1.41h5.86v1.41h-5.86Z"/>
      <path class="cls-1" d="m112.24,31.27l-4.54-10.55h1.61l4.54,10.55h-1.61Z"/>
      <path class="cls-1" d="m122.72,25.59l-.22-3.75h1.85l-.22,3.75h-1.42Z"/>
      <path class="cls-1" d="m126.81,31.57v-1.41h5.86v1.41h-5.86Z"/>
      <path class="cls-1" d="m143.8,31.27l-4.54-10.55h1.61l4.54,10.55h-1.61Z"/>
      <path class="cls-1" d="m151.94,31.27l4.54-10.55h1.61l-4.54,10.55h-1.61Z"/>
      <path class="cls-1" d="m164.68,31.57v-1.41h5.86v1.41h-5.86Z"/>
      <path class="cls-1" d="m173.52,22.85l-1.21-2.23h1.68l1.1,2.23h-1.56Z"/>
      <path class="cls-1" d="m185.77,31.98v-11.95h1.55v11.95h-1.55Z"/>
      <path class="cls-1" d="m189.92,31.57v-1.41h5.86v1.41h-5.86Z"/>
      <path class="cls-1" d="m208.74,31.27l4.54-10.55h1.61l-4.54,10.55h-1.61Z"/>
      <path class="cls-1" d="m223.64,31.98v-11.95h1.55v11.95h-1.55Z"/>
      <path class="cls-1" d="m2.74,41.98v-11.95h1.55v11.95h-1.55Z"/>
      <path class="cls-1" d="m15.36,41.98v-11.95h1.55v11.95h-1.55Z"/>
      <path class="cls-1" d="m19.52,41.62v-1.46h6.56v1.46h-6.56Z"/>
      <path class="cls-1" d="m24.95,41.62v-1.46h7.62v1.46h-7.62Z"/>
      <path class="cls-1" d="m31.44,41.62v-1.46h6.56v1.46h-6.56Z"/>
      <path class="cls-1" d="m40.61,41.98v-11.95h1.55v11.95h-1.55Z"/>
      <path class="cls-1" d="m53.23,41.98v-11.95h1.55v11.95h-1.55Z"/>
      <path class="cls-1" d="m65.85,41.98v-11.95h1.55v11.95h-1.55Z"/>
      <path class="cls-1" d="m78.48,41.98v-11.95h1.55v11.95h-1.55Z"/>
      <path class="cls-1" d="m95.25,41.62v-1.46h6.56v1.46h-6.56Z"/>
      <path class="cls-1" d="m100.86,41.62v-1.46h6.56v1.46h-6.56Z"/>
      <path class="cls-1" d="m107.76,41.27l4.54-10.55h1.61l-4.54,10.55h-1.61Z"/>
      <path class="cls-1" d="m122.66,41.98v-11.95h1.55v11.95h-1.55Z"/>
      <path class="cls-1" d="m135.28,41.98v-11.95h1.55v11.95h-1.55Z"/>
      <path class="cls-1" d="m147.9,41.98v-11.95h1.55v11.95h-1.55Z"/>
      <path class="cls-1" d="m163.46,41.33c-1.34,0-2.38-.47-3.12-1.4s-1.11-2.26-1.11-3.96.37-2.99,1.11-3.91,1.78-1.39,3.12-1.39h.26v1.47h-.26c-.83,0-1.47.33-1.92,1s-.68,1.61-.68,2.82.23,2.19.68,2.87,1.09,1.02,1.92,1.02h.26v1.47h-.26Z"/>
      <path class="cls-1" d="m164.68,41.57v-1.41h5.86v1.41h-5.86Z"/>
      <path class="cls-1" d="m173.15,41.98v-11.95h1.55v11.95h-1.55Z"/>
      <path class="cls-1" d="m185.77,41.98v-11.95h1.55v11.95h-1.55Z"/>
      <path class="cls-1" d="m189.81,41.27l4.54-10.55h1.61l-4.54,10.55h-1.61Z"/>
      <path class="cls-1" d="m202.43,41.27l4.54-10.55h1.61l-4.54,10.55h-1.61Z"/>
      <path class="cls-1" d="m211.01,41.98v-11.95h1.55v11.95h-1.55Z"/>
      <path class="cls-1" d="m223.64,41.98v-11.95h1.55v11.95h-1.55Z"/>
      <path class="cls-1" d="m11.26,51.27l-4.54-10.55h1.61l4.54,10.55h-1.61Z"/>
      <path class="cls-1" d="m13.21,51.62v-1.46h6.56v1.46h-6.56Z"/>
      <path class="cls-1" d="m18.64,51.62v-1.46h7.62v1.46h-7.62Z"/>
      <path class="cls-1" d="m24.95,51.62v-1.46h7.62v1.46h-7.62Z"/>
      <path class="cls-1" d="m31.26,51.62v-1.46h7.62v1.46h-7.62Z"/>
      <path class="cls-1" d="m37.57,51.62v-1.46h7.62v1.46h-7.62Zm3.04-1.17v-10.43h1.55v10.43h-1.55Z"/>
      <path class="cls-1" d="m44.06,51.62v-1.46h6.56v1.46h-6.56Z"/>
      <path class="cls-1" d="m53.23,51.98v-11.95h1.55v11.95h-1.55Z"/>
      <path class="cls-1" d="m65.85,51.98v-11.95h1.55v11.95h-1.55Z"/>
      <path class="cls-1" d="m70.01,51.57v-1.41h5.86v1.41h-5.86Z"/>
      <path class="cls-1" d="m78.48,51.98v-11.95h1.55v11.95h-1.55Z"/>
      <path class="cls-1" d="m87,51.27l-4.54-10.55h1.61l4.54,10.55h-1.61Z"/>
      <path class="cls-1" d="m88.94,51.62v-1.46h6.56v1.46h-6.56Z"/>
      <path class="cls-1" d="m94.38,51.62v-1.46h7.62v1.46h-7.62Z"/>
      <path class="cls-1" d="m100.69,51.62v-1.46h7.62v1.46h-7.62Z"/>
      <path class="cls-1" d="m107,51.62v-1.46h7.62v1.46h-7.62Zm3.04-1.17v-10.43h1.55v10.43h-1.55Z"/>
      <path class="cls-1" d="m113.49,51.62v-1.46h6.56v1.46h-6.56Z"/>
      <path class="cls-1" d="m122.66,51.98v-11.95h1.55v11.95h-1.55Z"/>
      <path class="cls-1" d="m135.28,51.98v-11.95h1.55v11.95h-1.55Z"/>
      <path class="cls-1" d="m139.43,51.57v-1.41h5.86v1.41h-5.86Z"/>
      <path class="cls-1" d="m147.9,51.98v-11.95h1.55v11.95h-1.55Z"/>
      <path class="cls-1" d="m156.42,51.27l-4.54-10.55h1.61l4.54,10.55h-1.61Z"/>
      <path class="cls-1" d="m158.37,51.62v-1.46h6.56v1.46h-6.56Z"/>
      <path class="cls-1" d="m163.98,51.62v-1.46h6.56v1.46h-6.56Z"/>
      <path class="cls-1" d="m172.62,52.71l.47-4.04h1.75l-.7,4.04h-1.51Z"/>
      <path class="cls-1" d="m183.5,51.27l4.54-10.55h1.61l-4.54,10.55h-1.61Z"/>
      <path class="cls-1" d="m189.92,51.62v-1.46h6.56v1.46h-6.56Z"/>
      <path class="cls-1" d="m195.36,51.62v-1.46h7.62v1.46h-7.62Z"/>
      <path class="cls-1" d="m201.67,51.62v-1.46h7.62v1.46h-7.62Z"/>
      <path class="cls-1" d="m207.98,51.62v-1.46h7.62v1.46h-7.62Zm3.04-1.17v-10.43h1.55v10.43h-1.55Z"/>
      <path class="cls-1" d="m214.47,51.62v-1.46h6.56v1.46h-6.56Z"/>
      <path class="cls-1" d="m223.64,51.98v-11.95h1.55v11.95h-1.55Z"/>
      <path class="cls-1" d="m154.21,61.98v-11.95h1.55v11.95h-1.55Z"/>
      <path class="cls-1" d="m158.37,61.62v-1.46h6.56v1.46h-6.56Z"/>
      <path class="cls-1" d="m163.8,61.62v-1.46h7.62v1.46h-7.62Z"/>
      <path class="cls-1" d="m170.29,61.62v-1.46h6.56v1.46h-6.56Z"/>
      <path class="cls-1" d="m177.18,61.27l4.54-10.55h1.61l-4.54,10.55h-1.61Z"/>
    </g>
  </g>
</svg>